<svg width="24" height="26" viewBox="0 0 24 26" fill="none" xmlns="http://www.w3.org/2000/svg">
<path d="M20.0652 13.7401C20.0515 11.6089 21.1124 10.0027 23.2549 8.81841C22.0567 7.25597 20.2438 6.39663 17.8541 6.23101C15.5914 6.06851 13.1159 7.43096 12.2094 7.43096C11.2515 7.43096 9.06094 6.28726 7.33734 6.28726C3.78026 6.33725 0 8.8684 0 14.0182C0 15.54 0.305579 17.1118 0.916738 18.7305C1.73391 20.8617 4.67983 26.0834 7.75279 25.999C9.35966 25.9646 10.4961 24.9615 12.5871 24.9615C14.6163 24.9615 15.667 25.999 17.4592 25.999C20.5597 25.9584 23.224 21.2117 24 19.0743C19.8421 17.29 20.0652 13.8495 20.0652 13.7401ZM16.4567 4.20921C18.1974 2.32803 18.0395 0.615601 17.988 0C16.4498 0.0812468 14.6712 0.953088 13.6584 2.02492C12.5425 3.17488 11.8867 4.5967 12.0275 6.19976C13.6893 6.31538 15.2069 5.53728 16.4567 4.20921Z" fill="#151515"/>
</svg>
