<svg width="24" height="23" viewBox="0 0 24 23" fill="none" xmlns="http://www.w3.org/2000/svg">
<path d="M22.6753 23C23.4068 23 23.9999 22.4316 23.9999 21.7306V1.2694C23.9999 0.568259 23.4068 0 22.6753 0H1.32459C0.592873 0 0 0.568259 0 1.2694V21.7306C0 22.4316 0.592873 23 1.32459 23H22.6753Z" fill="#395185"/>
<path d="M16.5594 23.0001V14.0933H19.6791L20.1462 10.6222H16.5594V8.40592C16.5594 7.40093 16.8507 6.71605 18.3545 6.71605L20.2726 6.71525V3.61071C19.9407 3.56839 18.8022 3.47388 17.4777 3.47388C14.7123 3.47388 12.8191 5.09151 12.8191 8.06227V10.6222H9.69141V14.0933H12.8191V23.0001H16.5594Z" fill="white"/>
</svg>
