<svg width="123" height="19" viewBox="0 0 123 19" fill="none" xmlns="http://www.w3.org/2000/svg">
<path d="M12.1634 6.48C11.8594 5.92 11.4194 5.496 10.8434 5.208C10.2834 4.904 9.61941 4.752 8.85141 4.752C7.52341 4.752 6.45941 5.192 5.65941 6.072C4.85941 6.936 4.45941 8.096 4.45941 9.552C4.45941 11.104 4.87541 12.32 5.70741 13.2C6.55541 14.064 7.71541 14.496 9.18741 14.496C10.1954 14.496 11.0434 14.24 11.7314 13.728C12.4354 13.216 12.9474 12.48 13.2674 11.52H8.05941V8.496H16.9874V12.312C16.6834 13.336 16.1634 14.288 15.4274 15.168C14.7074 16.048 13.7874 16.76 12.6674 17.304C11.5474 17.848 10.2834 18.12 8.87541 18.12C7.21141 18.12 5.72341 17.76 4.41141 17.04C3.11541 16.304 2.09941 15.288 1.36341 13.992C0.643405 12.696 0.283405 11.216 0.283405 9.552C0.283405 7.888 0.643405 6.408 1.36341 5.112C2.09941 3.8 3.11541 2.784 4.41141 2.064C5.70741 1.328 7.18741 0.959999 8.85141 0.959999C10.8674 0.959999 12.5634 1.448 13.9394 2.424C15.3314 3.4 16.2514 4.752 16.6994 6.48H12.1634ZM32.0287 15.024H25.7407L24.7327 18H20.4367L26.5327 1.152H31.2847L37.3807 18H33.0367L32.0287 15.024ZM30.9727 11.856L28.8847 5.688L26.8207 11.856H30.9727ZM52.004 15.024H45.716L44.708 18H40.412L46.508 1.152H51.26L57.356 18H53.012L52.004 15.024ZM50.948 11.856L48.86 5.688L46.796 11.856H50.948ZM80.5713 1.152V18H76.4673V7.896L72.6993 18H69.3873L65.5953 7.872V18H61.4913V1.152H66.3393L71.0673 12.816L75.7473 1.152H80.5713ZM93.7705 18.168C92.1865 18.168 90.7305 17.8 89.4025 17.064C88.0905 16.328 87.0425 15.304 86.2585 13.992C85.4905 12.664 85.1065 11.176 85.1065 9.528C85.1065 7.88 85.4905 6.4 86.2585 5.088C87.0425 3.776 88.0905 2.752 89.4025 2.016C90.7305 1.28 92.1865 0.912 93.7705 0.912C95.3545 0.912 96.8025 1.28 98.1145 2.016C99.4425 2.752 100.483 3.776 101.235 5.088C102.003 6.4 102.387 7.88 102.387 9.528C102.387 11.176 102.003 12.664 101.235 13.992C100.467 15.304 99.4265 16.328 98.1145 17.064C96.8025 17.8 95.3545 18.168 93.7705 18.168ZM93.7705 14.424C95.1145 14.424 96.1865 13.976 96.9865 13.08C97.8025 12.184 98.2105 11 98.2105 9.528C98.2105 8.04 97.8025 6.856 96.9865 5.976C96.1865 5.08 95.1145 4.632 93.7705 4.632C92.4105 4.632 91.3225 5.072 90.5065 5.952C89.7065 6.832 89.3065 8.024 89.3065 9.528C89.3065 11.016 89.7065 12.208 90.5065 13.104C91.3225 13.984 92.4105 14.424 93.7705 14.424ZM122.022 18H117.918L111.054 7.608V18H106.95V1.152H111.054L117.918 11.592V1.152H122.022V18Z" fill="white"/>
</svg>
